<svg width="224" height="229" viewBox="0 0 224 229" fill="none" xmlns="http://www.w3.org/2000/svg">
<path d="M200.188 118.568C200.188 118.568 184.886 132.199 165.936 142.138C155.636 147.572 156.165 158.401 145.571 158.867L134.109 172.101L114.76 173.885L106.305 170.507C94.7945 173.735 75.9193 174.289 65.8134 149.916L53.6084 143.369C41.8516 145.365 26.3036 146.722 23.2425 140.481C20.2791 134.407 29.4604 127.061 40.8788 124.598C48.7972 122.859 65.2111 38.0535 127.311 11.6836C127.311 11.6836 159.011 23.164 180.754 37.0364C198.584 71.8144 200.188 118.568 200.188 118.568Z" fill="#FFB08D"/>
<path d="M185.854 159.59L195.49 174.788L125.867 178.708L132.802 163.963L133.722 152.37C144.317 151.904 155.637 147.572 165.937 142.138L163.75 155.683C163.75 155.683 172.446 147.742 174.682 149.865C176.674 151.777 173.567 154.962 172.931 155.641C174.003 155.343 183.036 152.924 185.854 159.59Z" fill="#F44500"/>
<path d="M128.313 184.812L104.67 186.216C97.7702 186.682 93.3014 182.054 93.3014 182.054C93.3014 182.054 89.8519 189.145 86.4034 187.744C82.9534 186.301 86.4034 179.931 86.4034 179.931C86.4034 179.931 61.0897 190.207 57.6397 185.706C54.2393 181.163 73.0414 169.315 73.0414 169.315C73.0414 169.315 56.037 168.253 55.0166 165.748C54.0439 163.241 66.9683 163.029 66.9683 163.029L53.6084 143.368C61.187 142.052 67.1633 140.48 67.1633 140.48C77.2687 164.854 103.313 160.736 114.823 157.508L116.185 167.361L128.313 184.812Z" fill="#F44500"/>
<path d="M134.109 174.494L131.149 174.409L133.047 187.999L140.54 196.101L127.799 197.332L123.472 205.836C114.87 213.648 83.1956 240.826 79.5046 223.118C76.8304 210.208 92.6205 195.389 104.67 186.217C111.762 180.78 117.593 177.298 117.593 177.298L116.185 167.362L132.801 163.963L132.168 171.65L135.323 172.542C134.84 173.263 134.451 173.943 134.109 174.494Z" fill="#009E8F"/>
<path d="M122.647 196.066C119.084 198.122 115.469 200.099 111.835 202.05C108.224 204.033 104.527 205.89 100.877 207.816L98.6943 208.968L100.089 207.084C101.441 205.26 102.866 203.478 104.26 201.677L108.471 196.293C111.329 192.735 114.188 189.176 117.181 185.695C114.639 189.44 111.965 193.107 109.29 196.773L105.2 202.228C103.826 204.039 102.485 205.871 101.069 207.658L100.281 206.927C103.987 205.084 107.647 203.173 111.391 201.388C115.114 199.57 118.855 197.779 122.647 196.066Z" fill="#04112B"/>
<path d="M151.41 193.733L150.194 207.024C144.605 212.077 140.088 213.69 136.591 213.479C128.768 213.098 125.66 203.839 125.66 203.839C125.66 203.839 124.882 204.603 123.473 205.836L122.647 196.067L127.894 193.393C125.949 186.938 129.982 187.109 133.048 188L133.773 193.182C141.497 199.636 151.41 193.733 151.41 193.733Z" fill="#FFB08D"/>
<path d="M140.067 201.347C138.906 201.347 137.776 201.202 136.741 200.846C134.707 200.146 133.309 198.729 132.589 196.636L133.753 196.33C134.368 198.121 135.491 199.275 137.186 199.858C142.302 201.617 150.648 197.403 150.732 197.361L151.344 198.277C151.048 198.429 145.259 201.347 140.067 201.347Z" fill="#04112B"/>
<path d="M138.588 205.417C135.65 205.417 132.976 204.642 131.626 202.29L132.712 201.813C136.055 207.638 150.239 201.636 150.383 201.575L150.917 202.528C150.508 202.704 144.085 205.417 138.588 205.417Z" fill="#04112B"/>
<path d="M137.036 209.869C136.19 209.869 135.392 209.771 134.672 209.547C133.155 209.073 132.117 208.098 131.589 206.648L132.746 206.326C133.159 207.46 133.923 208.186 135.08 208.547C140.03 210.091 149.962 204.49 150.062 204.433L150.724 205.323C150.354 205.534 142.659 209.869 137.036 209.869Z" fill="#04112B"/>
<path d="M139.5 115.429C139.5 119.058 138.294 121.997 136.805 121.997C135.315 121.997 134.109 119.058 134.109 115.429C134.109 111.8 135.315 108.86 136.805 108.86C138.294 108.86 139.5 111.8 139.5 115.429Z" fill="#04112B"/>
<path d="M171.23 107.467C171.23 111.095 170.026 114.035 168.537 114.035C167.046 114.035 165.841 111.095 165.841 107.467C165.841 103.837 167.046 100.898 168.537 100.898C170.026 100.898 171.23 103.838 171.23 107.467Z" fill="#04112B"/>
<path d="M137.8 92.8301L124.438 97.6147L126.28 101.544L139.641 96.7597L137.8 92.8301Z" fill="#F44500"/>
<path d="M162.009 86.4459L161.616 90.6782L175.232 91.6442L175.625 87.4119L162.009 86.4459Z" fill="#F44500"/>
<path d="M153.772 111.78C154.082 113.157 154.334 114.54 154.587 115.922L155.269 120.075C155.667 122.849 156.045 125.625 156.334 128.41L156.416 129.202L155.562 128.953C152.984 128.205 150.428 127.397 147.885 126.558L147.534 126.442L147.637 126.162C147.805 125.706 148.002 125.286 148.253 124.869C148.505 124.458 148.824 124.06 149.281 123.756C149.499 123.604 149.796 123.492 150.096 123.492C150.248 123.465 150.387 123.527 150.527 123.555C150.674 123.576 150.775 123.666 150.894 123.727C151.352 123.996 151.611 124.406 151.875 124.785C151.542 124.445 151.194 124.106 150.765 123.914C150.657 123.874 150.559 123.804 150.444 123.806C150.334 123.801 150.226 123.758 150.122 123.797C149.915 123.822 149.72 123.916 149.564 124.061C149.237 124.335 149.021 124.725 148.823 125.111C148.63 125.499 148.477 125.922 148.369 126.327L148.12 125.931C150.739 126.57 153.345 127.242 155.93 127.973L155.158 128.517C154.789 125.74 154.508 122.955 154.248 120.168L153.944 115.98C153.868 114.581 153.79 113.183 153.772 111.78Z" fill="#04112B"/>
<path d="M107.146 137.178C108.159 147.966 119.132 147.125 128.313 144.984C119.554 149.786 105.258 148.793 107.146 137.178Z" fill="#04112B"/>
<path d="M109.607 139.203C107.541 136.88 103.615 138.037 101.794 139.981C103.482 137.256 108.016 135.854 110.813 138.141L109.607 139.203Z" fill="#04112B"/>
<path d="M28.9082 134.843C29.7157 132.781 31.5436 131.118 33.6119 129.906C34.6691 129.321 35.7908 128.8 36.9842 128.457C38.1606 128.076 39.3841 127.802 40.6199 127.623C41.2355 127.51 41.8562 127.438 42.481 127.396C43.0936 127.347 43.7445 127.271 44.3544 127.264C45.5923 127.215 46.8787 127.249 48.1212 127.382C50.6184 127.642 53.1176 128.216 55.3559 129.345C56.4561 129.925 57.5169 130.626 58.3146 131.577C59.1385 132.494 59.6257 133.74 59.4512 134.972C59.2608 136.207 58.4651 137.258 57.5235 138.054C56.5456 138.846 55.4838 139.449 54.2659 139.906C53.0654 140.347 51.7365 140.575 50.4178 140.501C49.0976 140.448 47.7963 140.054 46.7109 139.385C45.6424 138.722 44.7152 137.722 44.575 136.482C44.5054 135.873 44.6871 135.229 45.0888 134.733C45.4812 134.23 46.0272 133.863 46.5978 133.588L46.8547 134.111L41.9862 135.281L37.1059 136.417L41.8782 134.974L46.6628 133.564L46.9192 134.088C45.9188 134.588 45.1885 135.466 45.3707 136.409C45.5114 137.343 46.3 138.172 47.2451 138.705C49.1774 139.795 51.7273 139.855 53.8386 139.025C54.882 138.625 55.9121 138.026 56.7278 137.339C57.5379 136.634 58.1422 135.773 58.2712 134.847C58.3735 133.925 58.0255 132.983 57.3521 132.194C56.7007 131.391 55.7647 130.746 54.77 130.207C52.739 129.151 50.3774 128.57 47.9938 128.296C46.7882 128.156 45.6025 128.118 44.3759 128.113C43.7516 128.1 43.1754 128.154 42.5583 128.181C41.9504 128.201 41.3466 128.251 40.7489 128.341C39.5474 128.473 38.3556 128.699 37.2067 129.028C36.0405 129.322 34.9465 129.787 33.879 130.286C31.7953 131.344 29.9275 132.868 28.9082 134.843Z" fill="#04112B"/>
<path d="M220.205 146.171L216.561 206.131L138.243 225.242L136.592 213.479C140.089 213.69 144.605 212.076 150.195 207.023L151.41 193.732C151.41 193.732 141.497 199.635 133.774 193.181L133.048 187.999L131.149 174.409L134.11 174.494L179.539 172.541L216.755 148.761L220.205 146.171Z" fill="#04112B"/>
<path d="M216.756 148.763L180.755 176.066L134.11 174.495C134.453 173.944 134.841 173.263 135.325 172.541C137.754 169.06 142.812 164.177 152.818 163.03C168.803 161.204 179.539 171.098 179.539 171.098C179.539 171.098 181.58 165.408 185.854 159.59C191.739 151.564 201.84 143.199 216.756 148.763Z" fill="white"/>
<path d="M176.897 177.399L174.474 177.543L177.316 213.993L179.74 213.849L176.897 177.399Z" fill="#009E8F"/>
<path d="M187.054 176.005L184.627 176.082L186.1 211.717L188.527 211.64L187.054 176.005Z" fill="#009E8F"/>
<path d="M189.349 178.708L188.818 173.523L192.511 170.869L193.282 171.689L190.085 173.986L190.559 178.614L189.349 178.708Z" fill="#009E8F"/>
<path d="M218.512 157.338H217.297V152.473L214.371 155.02L213.515 154.269L218.512 149.917V157.338Z" fill="#009E8F"/>
<path d="M190.566 211.69V206.578H191.781V209.958L194.233 208.867L194.785 209.814L190.566 211.69Z" fill="#009E8F"/>
<path d="M213.024 205.754L212.64 204.747L215.216 203.996L214.857 200.869L216.066 200.763L216.522 204.734L213.024 205.754Z" fill="#009E8F"/>
<path d="M192.706 207.781L191.77 175.374L216.633 156.688L212.905 203.458L192.706 207.781ZM192.998 175.851L193.882 206.436L211.755 202.611L215.219 159.15L192.998 175.851Z" fill="#009E8F"/>
<path d="M179.539 171.098C179.539 171.098 179.594 170.93 179.696 170.613C179.792 170.294 179.949 169.831 180.189 169.252C180.428 168.675 180.679 167.955 181.042 167.157C181.419 166.365 181.844 165.47 182.336 164.502C182.774 163.511 183.483 162.54 184.119 161.46C184.779 160.399 185.45 159.227 186.318 158.158C187.161 157.057 188.122 155.946 189.133 154.866C190.174 153.801 191.288 152.756 192.503 151.797C193.744 150.864 195.048 149.986 196.446 149.272C197.139 148.908 197.831 148.553 198.566 148.285L199.64 147.851C200.011 147.738 200.379 147.627 200.743 147.516C201.109 147.408 201.471 147.3 201.83 147.194C202.202 147.125 202.569 147.058 202.933 146.991C203.297 146.927 203.657 146.864 204.012 146.802C204.371 146.761 204.731 146.746 205.082 146.718C206.486 146.564 207.821 146.673 209.039 146.728C210.245 146.91 211.365 147.003 212.3 147.299C213.245 147.554 214.082 147.726 214.722 147.998C216.016 148.485 216.755 148.763 216.755 148.763C216.755 148.763 215.988 148.556 214.647 148.194C213.992 147.973 213.145 147.865 212.2 147.684C211.259 147.465 210.157 147.461 208.984 147.323C207.802 147.325 206.516 147.277 205.184 147.487C204.85 147.529 204.51 147.557 204.171 147.612C203.836 147.687 203.497 147.763 203.155 147.839C202.813 147.913 202.466 147.987 202.118 148.061C201.778 148.169 201.437 148.276 201.092 148.385C200.748 148.495 200.4 148.605 200.051 148.717L199.038 149.145C198.345 149.41 197.692 149.759 197.037 150.117C195.719 150.815 194.487 151.679 193.31 152.588C192.124 153.494 191.027 154.488 189.994 155.508C188.983 156.551 188.045 157.596 187.192 158.67C186.313 159.747 185.602 160.817 184.883 161.845C184.197 162.879 183.436 163.808 182.946 164.766C182.4 165.699 181.899 166.555 181.455 167.314C181.019 168.076 180.704 168.766 180.41 169.323C179.817 170.436 179.539 171.098 179.539 171.098Z" fill="#04112B"/>
<path d="M137.027 172.028C137.027 172.028 137.509 171.559 138.444 170.817C139.389 170.088 140.752 169.043 142.562 167.988C143.461 167.456 144.463 166.907 145.567 166.393C146.66 165.864 147.853 165.352 149.147 164.953C150.429 164.525 151.804 164.186 153.231 163.955C154.657 163.714 156.144 163.631 157.631 163.672C158.432 163.708 159.079 163.829 159.808 163.903C160.529 164.033 161.26 164.197 161.971 164.351C162.654 164.56 163.343 164.745 164.002 164.971C164.647 165.225 165.304 165.442 165.914 165.717C168.382 166.778 170.431 168.13 172.102 169.338C173.775 170.555 174.999 171.726 175.845 172.542C176.68 173.371 177.096 173.885 177.096 173.885C177.096 173.885 176.597 173.431 175.676 172.686C174.764 171.933 173.388 170.927 171.678 169.806C169.97 168.684 167.846 167.534 165.458 166.548C164.865 166.292 164.231 166.096 163.608 165.862C162.973 165.657 162.314 165.494 161.659 165.304C160.995 165.175 160.341 165.036 159.66 164.921C158.968 164.861 158.196 164.746 157.563 164.731C156.179 164.67 154.783 164.722 153.426 164.929C152.068 165.126 150.745 165.427 149.503 165.818C148.877 166.003 148.27 166.206 147.682 166.424C147.087 166.626 146.513 166.842 145.966 167.081C144.859 167.526 143.842 168.013 142.925 168.492C141.088 169.447 139.596 170.316 138.593 170.976C137.583 171.626 137.027 172.028 137.027 172.028Z" fill="#04112B"/>
<path d="M139.5 172.541C139.5 172.541 139.911 172.211 140.71 171.719C141.508 171.229 142.669 170.541 144.167 169.872C145.667 169.214 147.465 168.498 149.498 167.977C150.51 167.713 151.584 167.505 152.676 167.321C153.785 167.225 154.901 167.009 156.041 167.033L157.743 167.016C158.308 167.036 158.869 167.109 159.425 167.153C160.547 167.202 161.615 167.45 162.647 167.68C163.699 167.847 164.635 168.241 165.534 168.56C165.979 168.729 166.427 168.863 166.831 169.047C167.225 169.248 167.606 169.441 167.972 169.628C168.694 170.01 169.387 170.312 169.913 170.697C170.44 171.075 170.901 171.405 171.28 171.677C172.022 172.227 172.445 172.541 172.445 172.541C172.445 172.541 171.971 172.287 171.14 171.843C170.732 171.618 170.236 171.344 169.668 171.03C169.104 170.715 168.378 170.493 167.656 170.157C167.287 170.001 166.904 169.837 166.507 169.668C166.102 169.517 165.657 169.417 165.214 169.282C164.322 169.033 163.403 168.725 162.394 168.589C161.897 168.499 161.392 168.409 160.88 168.317C160.369 168.224 159.834 168.23 159.307 168.172C158.776 168.137 158.243 168.073 157.705 168.06L156.083 168.093C154.998 168.055 153.925 168.255 152.861 168.333C151.812 168.507 150.767 168.647 149.779 168.877C148.795 169.12 147.829 169.316 146.944 169.6C146.042 169.841 145.221 170.144 144.454 170.411C142.941 170.981 141.678 171.479 140.834 171.894C139.975 172.286 139.5 172.541 139.5 172.541Z" fill="#04112B"/>
<path d="M142.104 173.885C142.104 173.885 143.596 172.817 146.288 171.911C146.954 171.675 147.703 171.486 148.492 171.272C149.293 171.105 150.132 170.88 151.03 170.792C151.92 170.653 152.848 170.573 153.796 170.539C154.743 170.463 155.708 170.549 156.671 170.547C157.63 170.618 158.584 170.739 159.523 170.842C160.451 171.009 161.356 171.2 162.232 171.378C163.09 171.614 163.91 171.871 164.685 172.107C165.458 172.35 166.149 172.669 166.805 172.915C167.459 173.168 168.053 173.407 168.54 173.688C169.037 173.949 169.47 174.177 169.826 174.364C170.527 174.749 170.928 174.969 170.928 174.969C170.928 174.969 170.487 174.816 169.716 174.548C169.337 174.408 168.875 174.239 168.346 174.046C167.827 173.836 167.204 173.677 166.544 173.468C165.877 173.277 165.177 173.019 164.401 172.842C163.624 172.67 162.806 172.494 161.969 172.285C161.115 172.145 160.233 172.001 159.337 171.854C158.432 171.768 157.513 171.666 156.593 171.607C155.671 171.598 154.746 171.5 153.839 171.563C152.93 171.592 152.034 171.61 151.174 171.717C149.448 171.869 147.846 172.141 146.502 172.476C143.798 173.113 142.104 173.885 142.104 173.885Z" fill="#04112B"/>
<path d="M182.619 172.541C182.619 172.541 183.233 170.287 184.786 167.088C185.583 165.5 186.542 163.647 187.825 161.778C189.107 159.912 190.598 157.972 192.346 156.2C193.24 155.33 194.169 154.484 195.168 153.728C196.147 152.952 197.196 152.274 198.237 151.652C199.296 151.05 200.381 150.554 201.451 150.167C202.521 149.78 203.569 149.501 204.548 149.299C205.043 149.218 205.516 149.141 205.966 149.067C206.422 149.037 206.855 149.009 207.262 148.983C208.072 148.933 208.782 148.995 209.361 148.993C210.515 149.114 211.164 149.203 211.164 149.203C211.164 149.203 210.506 149.202 209.356 149.199C208.785 149.253 208.088 149.256 207.307 149.376C206.918 149.437 206.504 149.502 206.067 149.57C205.639 149.668 205.19 149.771 204.72 149.878C203.793 150.124 202.811 150.447 201.816 150.873C200.823 151.298 199.833 151.839 198.825 152.416C197.843 153.031 196.853 153.698 195.929 154.463C194.985 155.207 194.11 156.043 193.261 156.897C191.527 158.581 190.024 160.449 188.724 162.257C187.427 164.068 186.282 165.804 185.403 167.341C183.602 170.396 182.619 172.541 182.619 172.541Z" fill="#04112B"/>
<path d="M187.325 169.025C187.325 169.025 187.82 167.398 189.042 165.111C189.669 163.978 190.424 162.655 191.407 161.325C192.379 159.99 193.541 158.626 194.87 157.381C196.21 156.148 197.702 155.02 199.275 154.181C200.06 153.758 200.863 153.417 201.648 153.144C202.435 152.874 203.202 152.679 203.916 152.536C204.636 152.401 205.304 152.336 205.899 152.326C206.489 152.291 207.006 152.347 207.426 152.349C208.265 152.443 208.733 152.52 208.733 152.52C208.733 152.52 208.257 152.533 207.422 152.556C207.011 152.605 206.507 152.614 205.947 152.719C205.381 152.804 204.76 152.947 204.09 153.115C203.426 153.303 202.723 153.543 202.008 153.852C201.296 154.164 200.582 154.551 199.856 154.966C198.429 155.831 197.025 156.908 195.756 158.106C194.463 159.285 193.324 160.595 192.292 161.846C191.272 163.105 190.357 164.314 189.644 165.39C188.182 167.524 187.325 169.025 187.325 169.025Z" fill="#04112B"/>
<path d="M180.754 37.0361C157.823 49.4768 127.311 11.6837 127.311 11.6837C125.901 97.7613 64.5396 128.463 64.5396 128.463C57.836 123.451 48.797 122.858 40.8787 124.598L0.990234 61.4098C0.990234 61.4098 39.0319 15.2077 117.399 1.06744C149.026 -4.66606 168.66 13.4665 180.754 37.0361Z" fill="#F44500"/>
<path opacity="0.2" d="M58.8906 115.429C58.8906 115.429 59.2928 115.129 60.0057 114.527C60.7395 113.948 61.7394 113.026 63.055 111.896C64.3113 110.714 65.9042 109.338 67.5643 107.623C69.2811 105.955 71.1079 103.992 73.1103 101.861C74.1378 100.815 75.0957 99.6447 76.1284 98.4639C77.1349 97.2661 78.2536 96.0804 79.2591 94.7673C81.2952 92.157 83.5063 89.4493 85.5548 86.5063C86.5889 85.0419 87.7091 83.5914 88.7172 82.0555C89.7145 80.5147 90.7241 78.9551 91.7409 77.382C92.2521 76.598 92.7659 75.8108 93.2812 75.0205L94.6838 72.5753C95.6208 70.9414 96.5618 69.3013 97.5024 67.6612C99.3338 64.3612 100.925 60.9607 102.625 57.667C104.094 54.2888 105.541 50.9638 106.941 47.7462C108.149 44.4669 109.316 41.2971 110.423 38.291C110.694 37.5378 110.985 36.7994 111.231 36.0623C111.446 35.318 111.659 34.5859 111.868 33.8653C112.286 32.4233 112.691 31.0297 113.079 29.6928C113.807 27.0079 114.687 24.5823 115.11 22.3666C115.613 20.1629 116.05 18.2419 116.411 16.6599C117.164 13.4933 117.593 11.6841 117.593 11.6841C117.593 11.6841 117.333 13.517 116.878 16.7243C116.634 18.3291 116.339 20.2778 115.999 22.5133C115.747 24.7657 115.051 27.2391 114.412 29.9598C114.083 31.319 113.74 32.7351 113.384 34.2008C113.206 34.9343 113.025 35.6799 112.842 36.4371C112.627 37.1872 112.369 37.9399 112.13 38.7083C111.134 41.7707 110.17 45.0304 108.968 48.3464C107.612 51.6151 106.295 55.025 104.799 58.4381C103.107 61.7796 101.526 65.2307 99.692 68.5807C98.7274 70.2356 97.7623 71.8901 96.8013 73.5382L95.3629 76.0045C94.8348 76.801 94.3092 77.5949 93.7852 78.3866C92.7301 79.9646 91.6831 81.5304 90.6484 83.0771C89.5932 84.6121 88.425 86.0617 87.3453 87.5233C85.2329 90.4766 82.8447 93.1249 80.6776 95.6873C79.604 96.9759 78.4193 98.1369 77.3504 99.3088C76.2553 100.464 75.2395 101.607 74.1542 102.628C73.0924 103.662 72.074 104.654 71.1064 105.597C70.1141 106.521 69.1235 107.357 68.2203 108.163C66.4288 109.789 64.7247 111.083 63.381 112.195C60.6028 114.341 58.8906 115.429 58.8906 115.429Z" fill="white"/>
<path opacity="0.2" d="M36.0059 108.859C36.0059 108.859 36.4628 108.684 37.2841 108.297C38.1223 107.943 39.2865 107.309 40.7971 106.566C42.2596 105.744 44.0716 104.807 46.0166 103.55C48.022 102.375 50.1114 100.84 52.4709 99.275C53.6115 98.4467 54.7604 97.5414 55.9695 96.6285C56.5708 96.1696 57.1818 95.7023 57.8025 95.2286C58.3895 94.7214 58.9866 94.207 59.591 93.686C60.7945 92.6412 62.0314 91.5677 63.2953 90.4715C64.4892 89.3158 65.7091 88.1354 66.949 86.935C67.5692 86.3352 68.1935 85.7305 68.8234 85.1217C69.4078 84.4777 69.9947 83.8296 70.5863 83.177C71.773 81.8764 72.975 80.561 74.1862 79.2339C75.3494 77.876 76.4291 76.4452 77.5636 75.0431C78.653 73.6145 79.8883 72.2615 80.8667 70.7605C81.8891 69.2845 82.9105 67.8085 83.9288 66.3379C84.9436 64.866 86.0039 63.424 86.8374 61.8854C87.7299 60.3745 88.6152 58.8766 89.4897 57.3957C90.3478 55.9081 91.3078 54.4845 91.9879 52.9736C93.4473 49.9948 94.9165 47.135 96.3027 44.4157C97.5216 41.6399 98.5778 38.98 99.6059 36.5398C100.117 35.3178 100.606 34.146 101.071 33.0323C101.527 31.9155 101.85 30.8259 102.214 29.8174C102.911 27.7895 103.518 26.0223 104.019 24.5665C105.052 21.6565 105.642 19.9932 105.642 19.9932C105.642 19.9932 105.218 21.6932 104.477 24.6684C104.091 26.1556 103.621 27.9612 103.084 30.0329C102.799 31.0657 102.56 32.1825 102.191 33.3297C101.783 34.4671 101.354 35.6631 100.906 36.9114C99.9907 39.4027 99.0542 42.123 97.9591 44.9685C96.6952 47.7594 95.3704 50.7114 93.9375 53.7438C93.2861 55.2851 92.3512 56.7454 91.5186 58.2693C90.6564 59.781 89.7834 61.312 88.9043 62.8551C88.0702 64.4201 87.0073 65.892 85.989 67.3935C84.9661 68.8932 83.9396 70.3978 82.912 71.9033C81.9055 73.4199 80.6395 74.7917 79.5199 76.2368C78.3547 77.6551 77.2448 79.1011 76.0504 80.4742C74.7962 81.8075 73.5507 83.1305 72.321 84.4374C71.7039 85.0886 71.0903 85.7358 70.4809 86.3781C69.8254 86.9855 69.175 87.5893 68.5292 88.1873C67.2315 89.3761 65.9552 90.5457 64.7061 91.6898C63.3695 92.7566 62.0621 93.8005 60.7894 94.8167C60.1523 95.3221 59.5229 95.8208 58.9037 96.3123C58.2513 96.7703 57.6081 97.2216 56.9771 97.6653C55.707 98.5455 54.5014 99.4168 53.3086 100.213C50.8575 101.735 48.63 103.145 46.5099 104.207C44.4549 105.353 42.5538 106.191 41.0243 106.925C37.8905 108.287 36.0059 108.859 36.0059 108.859Z" fill="white"/>
<path opacity="0.2" d="M36.0059 97.1855C36.0059 97.1855 36.3937 96.9959 37.08 96.5893C37.78 96.2078 38.7446 95.5535 39.9763 94.7488C40.577 94.3266 41.2413 93.8592 41.9643 93.3498C42.67 92.8229 43.4022 92.22 44.199 91.5956C45.0106 90.9855 45.8037 90.2668 46.6389 89.5122C47.4576 88.7425 48.4243 88.0309 49.266 87.1417C50.1385 86.2812 51.0473 85.3844 51.9884 84.4564C52.9161 83.5202 53.7727 82.4741 54.7087 81.444C56.6353 79.4184 58.2595 77.0134 60.1748 74.6867C61.0622 73.4796 61.8809 72.2035 62.7544 70.9404C63.6008 69.6617 64.5413 68.412 65.29 67.0497C66.8297 64.3509 68.5957 61.6977 69.8878 58.8406C71.3001 56.0344 72.7902 53.256 73.8807 50.3841C75.0219 47.5337 76.3692 44.7933 77.2135 42.0032C78.1264 39.236 79.1576 36.5936 79.9395 34.0401C80.6615 31.4697 81.3441 29.0392 81.9741 26.7962C82.2903 25.6731 82.5927 24.5966 82.8808 23.5728C83.1131 22.5387 83.3332 21.5574 83.5404 20.6351C83.9554 18.7879 84.3167 17.1778 84.615 15.8525C85.2419 13.1989 85.6006 11.6831 85.6006 11.6831C85.6006 11.6831 85.4128 13.2213 85.0833 15.9129C84.9026 17.2592 84.6831 18.8935 84.4318 20.7689C84.306 21.7081 84.1719 22.7078 84.0312 23.7611C83.8531 24.809 83.5788 25.8972 83.3409 27.0422C82.8327 29.3277 82.2821 31.8038 81.6993 34.4225C81.0299 37.0247 80.1273 39.732 79.2604 42.5467C78.4652 45.3814 77.2376 48.205 76.0801 51.0966C74.9978 54.0159 73.5159 56.8533 72.0999 59.7141C70.7597 62.6052 68.9375 65.3018 67.344 68.0354C66.578 69.4184 65.5858 70.6788 64.6841 71.9606C63.7579 73.23 62.889 74.5087 61.9515 75.7195C59.9589 78.0725 58.1525 80.4225 56.0826 82.4106C55.074 83.4205 54.1483 84.4429 53.1546 85.3567C52.148 86.2602 51.1763 87.1323 50.2439 87.9701C49.3377 88.8288 48.3321 89.5359 47.4351 90.2538C46.5232 90.9591 45.661 91.6287 44.7844 92.1932C43.9227 92.7706 43.1331 93.327 42.3752 93.8091C41.6015 94.2734 40.8907 94.6987 40.249 95.0834C38.9447 95.8227 37.8885 96.3594 37.1444 96.6882C36.4117 97.0321 36.0059 97.1855 36.0059 97.1855Z" fill="white"/>
<path opacity="0.2" d="M129.734 5.66162C129.734 5.66162 130.279 6.30747 131.272 7.39746C132.227 8.51026 133.729 10.009 135.508 11.7986C136.436 12.6658 137.389 13.6413 138.482 14.6025C139.02 15.0886 139.573 15.5882 140.138 16.0986C140.725 16.5892 141.323 17.0915 141.932 17.6014C143.106 18.6605 144.492 19.5859 145.787 20.6325C147.139 21.6187 148.553 22.5808 149.984 23.5138L152.18 24.8462C152.903 25.3019 153.637 25.7336 154.41 26.0958C155.944 26.8374 157.372 27.7096 158.916 28.2709C160.427 28.8908 161.859 29.5657 163.324 29.9687C164.774 30.3959 166.102 30.9634 167.423 31.1875C168.726 31.4675 169.921 31.7582 170.987 32.0194C172.067 32.1782 173.022 32.2793 173.809 32.3826C175.382 32.5866 176.294 32.7333 176.294 32.7333C176.294 32.7333 175.387 32.7753 173.779 32.795C172.976 32.7954 171.994 32.8205 170.866 32.803C169.753 32.689 168.489 32.557 167.111 32.3755C165.71 32.2739 164.285 31.8284 162.74 31.4697C161.172 31.1486 159.622 30.5685 158.016 29.9678C156.375 29.4266 154.814 28.6354 153.211 27.8585C152.394 27.4886 151.622 27.0494 150.861 26.5874L148.551 25.2273C147.08 24.2388 145.632 23.2213 144.252 22.1809C142.92 21.0936 141.582 20.0461 140.422 18.9199C139.832 18.3666 139.251 17.8232 138.683 17.2901C138.152 16.7297 137.633 16.1818 137.126 15.6477C136.087 14.6029 135.242 13.5174 134.418 12.5526C132.825 10.582 131.666 8.84481 130.879 7.62422C130.094 6.40095 129.734 5.66162 129.734 5.66162Z" fill="white"/>
<path opacity="0.2" d="M139.499 6.54443C139.499 6.54443 141.241 8.00207 143.894 10.0501C144.575 10.5484 145.282 11.1097 146.064 11.6688C146.83 12.2439 147.667 12.8155 148.525 13.4117C149.359 14.0334 150.316 14.567 151.214 15.1883C152.137 15.78 153.11 16.3378 154.074 16.9004C155.068 17.4175 156.018 18.0092 157.028 18.465C158.048 18.901 158.981 19.4682 159.988 19.8179C160.98 20.191 161.903 20.6512 162.848 20.9191C163.789 21.1901 164.645 21.5855 165.493 21.7577C166.334 21.9585 167.105 22.1674 167.795 22.3544C168.489 22.4971 169.108 22.5861 169.617 22.6849C170.636 22.8728 171.231 23.0002 171.231 23.0002C171.231 23.0002 170.639 23.0517 169.582 23.1058C169.055 23.1214 168.404 23.1823 167.665 23.1586C166.931 23.1049 166.096 23.0414 165.184 22.9457C164.259 22.896 163.316 22.625 162.286 22.4255C161.246 22.2426 160.218 21.883 159.139 21.5341C158.046 21.2107 156.995 20.733 155.912 20.2683C154.83 19.805 153.813 19.2119 152.753 18.681C151.756 18.0696 150.753 17.4622 149.805 16.8248C148.872 16.1705 147.962 15.5166 147.14 14.8305C146.289 14.1721 145.525 13.4824 144.82 12.8147C144.088 12.1715 143.478 11.493 142.893 10.8919C140.596 8.43905 139.499 6.54443 139.499 6.54443Z" fill="white"/>
<path d="M213.942 194.632L215.157 174.991L223.01 175.261L220.205 191.269L213.942 194.632Z" fill="#FFB08D"/>
<path d="M221.79 178.13H214.929V179.192H221.79V178.13Z" fill="#04112B"/>
<path d="M220.822 182.795L214.872 183.324L214.995 184.38L220.945 183.852L220.822 182.795Z" fill="#04112B"/>
<path d="M220.052 187.411L214.112 188.889L214.445 189.91L220.385 188.432L220.052 187.411Z" fill="#04112B"/>
<path d="M123.519 137.795C107.49 137.795 94.4502 120.651 94.4502 99.5784C94.4502 78.5086 107.49 61.3672 123.519 61.3672C139.547 61.3672 152.587 78.5086 152.587 99.5784C152.587 120.651 139.547 137.795 123.519 137.795ZM123.519 65.2012C109.91 65.2012 98.8372 80.6233 98.8372 99.5784C98.8372 118.536 109.91 133.96 123.519 133.96C137.128 133.96 148.2 118.536 148.2 99.5784C148.2 80.6233 137.129 65.2012 123.519 65.2012Z" fill="#04112B"/>
<path d="M177.266 124.638C161.239 124.638 148.2 107.496 148.2 86.4244C148.2 65.3533 161.239 48.2109 177.266 48.2109C193.294 48.2109 206.333 65.3533 206.333 86.4244C206.333 107.496 193.294 124.638 177.266 124.638ZM177.266 52.0453C163.658 52.0453 152.587 67.468 152.587 86.4244C152.587 105.381 163.658 120.803 177.266 120.803C190.874 120.803 201.946 105.381 201.946 86.4244C201.946 67.468 190.874 52.0453 177.266 52.0453Z" fill="#04112B"/>
<path d="M99.2362 115.357L63.7725 126.654L65.2746 130.256L100.738 118.959L99.2362 115.357Z" fill="#04112B"/>
</svg>
