<svg width="400" height="400" viewBox="0 0 400 400" fill="none" xmlns="http://www.w3.org/2000/svg">
<path d="M198.542 360.622C293.351 360.622 370.209 283.764 370.209 188.955C370.209 94.1464 293.351 17.2886 198.542 17.2886C103.733 17.2886 26.8753 94.1464 26.8753 188.955C26.8753 283.764 103.733 360.622 198.542 360.622Z" fill="#EBFDFF"/>
<path d="M142.971 225.857C150.472 225.857 156.554 219.776 156.554 212.274C156.554 204.772 150.472 198.69 142.971 198.69C135.469 198.69 129.387 204.772 129.387 212.274C129.387 219.776 135.469 225.857 142.971 225.857Z" fill="#FFAF8C"/>
<path d="M247.969 225.857C255.471 225.857 261.553 219.776 261.553 212.274C261.553 204.772 255.471 198.69 247.969 198.69C240.467 198.69 234.386 204.772 234.386 212.274C234.386 219.776 240.467 225.857 247.969 225.857Z" fill="#FFAF8C"/>
<path d="M196.071 297.932C166.592 297.932 142.488 273.828 142.488 244.349V166.307C142.488 136.828 166.592 112.724 196.071 112.724C225.55 112.724 249.654 136.828 249.654 166.307V244.349C249.654 273.807 225.55 297.932 196.071 297.932Z" fill="#F9CF98"/>
<path d="M193.668 214.355L183.939 231.21C182.897 233.022 184.21 235.272 186.293 235.272H205.752C207.835 235.272 209.147 233.022 208.106 231.21L198.377 214.355C197.335 212.543 194.71 212.543 193.668 214.355Z" fill="#FFAF8C"/>
<path d="M72.3597 216.713C72.3597 216.713 141.86 204.942 195.485 232.38C195.485 232.38 249.11 203.526 310.86 218.901V235.255L196.026 246.151L72.3597 230.172V216.713Z" fill="#FFEE99"/>
<path d="M192.088 163.265C179.692 183.703 158.442 195.495 136.255 196.682C127.046 176.432 127.692 152.14 140.088 131.703C152.484 111.265 173.734 99.4736 195.942 98.2861C205.13 118.515 204.505 142.807 192.088 163.265Z" fill="#5E372D"/>
<path d="M251.801 131.691C264.218 152.128 264.885 176.399 255.718 196.67C233.51 195.503 212.239 183.753 199.822 163.316C187.385 142.878 186.739 118.586 195.906 98.3364C218.114 99.5031 239.385 111.253 251.801 131.691Z" fill="#734538"/>
<path d="M221.053 220.564C223.723 220.564 225.887 218.4 225.887 215.731C225.887 213.061 223.723 210.897 221.053 210.897C218.384 210.897 216.22 213.061 216.22 215.731C216.22 218.4 218.384 220.564 221.053 220.564Z" fill="#223441"/>
<path d="M174.826 218.823C176.883 217.121 177.171 214.074 175.469 212.018C173.767 209.961 170.721 209.673 168.664 211.375C166.607 213.077 166.319 216.123 168.021 218.18C169.723 220.237 172.77 220.525 174.826 218.823Z" fill="#223441"/>
<path d="M179.744 192.933L160.807 198.245C159.661 198.558 158.473 197.891 158.161 196.766C157.848 195.62 158.515 194.433 159.64 194.12L178.578 188.808C179.723 188.495 180.911 189.162 181.223 190.287C181.557 191.433 180.869 192.62 179.744 192.933Z" fill="#223441"/>
<path d="M231.209 206.146L211.938 202.167C210.793 201.938 210.043 200.792 210.272 199.625C210.501 198.48 211.647 197.73 212.813 197.959L232.084 201.938C233.23 202.167 233.98 203.313 233.751 204.48C233.501 205.625 232.376 206.375 231.209 206.146Z" fill="#223441"/>
<path d="M195.563 380.294L64.3753 360.502V215.502L195.563 235.315V380.294Z" fill="#FF7622"/>
<path d="M152.532 325.142L89.6574 315.642V246.163L152.532 255.642V325.142Z" fill="#FFB926"/>
<path d="M195.676 380.294L326.884 360.502V215.502L195.676 235.315V380.294Z" fill="#FF7622"/>
<path d="M214.396 232.375V380.25C214.396 383.438 205.917 386.021 195.479 386.021C185.042 386.021 176.562 383.438 176.562 380.25V232.375H214.396Z" fill="#FF6000"/>
<path d="M214.396 231.901C214.396 235.359 205.917 238.151 195.479 238.151C185.042 238.151 176.562 235.359 176.562 231.901H214.396Z" fill="#FFEE99"/>
<path d="M214.706 243.75V249.521C214.706 252.708 205.997 255.292 195.539 255.292C185.081 255.292 176.622 252.708 176.622 249.521V243.75C176.622 246.937 185.101 249.521 195.539 249.521C205.997 249.521 214.456 246.937 214.456 243.75H214.706Z" fill="#00375F"/>
<path d="M214.615 255.288V261.058C214.615 264.246 205.907 266.829 195.448 266.829C184.99 266.829 176.532 264.246 176.532 261.058V255.288C176.532 258.475 185.011 261.058 195.448 261.058C205.907 261.058 214.365 258.475 214.365 255.288H214.615Z" fill="#00375F"/>
<path d="M214.586 339.713V345.484C214.586 348.672 205.878 351.255 195.419 351.255C184.961 351.255 176.503 348.672 176.503 345.484V339.713C176.503 342.901 184.982 345.484 195.419 345.484C205.878 345.484 214.336 342.901 214.336 339.713H214.586Z" fill="#00375F"/>
<path d="M214.474 351.251V357.022C214.474 360.209 205.766 362.793 195.307 362.793C184.849 362.793 176.391 360.209 176.391 357.022V351.251C176.391 354.438 184.87 357.022 195.307 357.022C205.766 357.022 214.224 354.438 214.224 351.251H214.474Z" fill="#00375F"/>
<path d="M236.31 262.579L299.185 253.079V246.163L236.31 255.642V262.579Z" fill="#FFB926"/>
<path d="M236.31 272.941L299.185 263.441V256.503L236.31 266.003V272.941Z" fill="#FFB926"/>
<path d="M236.674 283.956L299.549 274.477V267.539L236.674 277.018V283.956Z" fill="#FFB926"/>
<path d="M152.05 339.705L89.1746 330.205V323.268L152.05 332.768V339.705Z" fill="#FFB926"/>
<path d="M217.142 43.999C217.142 45.7282 216.809 47.2699 216.163 48.6032C215.496 49.9365 214.684 51.1865 213.684 52.3115C212.684 53.4365 211.601 54.499 210.455 55.499C209.288 56.499 208.226 57.499 207.226 58.5407C206.226 59.5615 205.392 60.624 204.746 61.6865C204.08 62.7699 203.767 63.9574 203.767 65.2699H187.226C187.226 62.3324 187.705 59.9365 188.684 58.1032C189.663 56.2699 190.726 54.7074 191.913 53.4574C193.101 52.1865 194.184 51.0407 195.184 49.999C196.184 48.9574 196.684 47.749 196.684 46.374C196.684 45.5824 196.351 44.874 195.705 44.2074C195.038 43.5407 194.33 43.2282 193.538 43.2282C192.538 43.2282 191.746 43.4782 191.142 43.9782C190.538 44.4782 190.059 45.0199 189.684 45.6032C189.267 46.2907 188.976 47.0824 188.809 47.9574L173.83 42.4365C174.622 39.6449 175.934 37.1657 177.767 34.9574C178.559 34.0199 179.496 33.1032 180.601 32.2074C181.705 31.3115 182.996 30.5199 184.455 29.8115C185.934 29.1032 187.601 28.5407 189.496 28.124C191.392 27.7074 193.517 27.499 195.871 27.499C199.226 27.499 202.226 27.9574 204.851 28.874C207.476 29.7907 209.705 31.0199 211.517 32.5407C213.33 34.0615 214.726 35.8324 215.684 37.8115C216.663 39.7699 217.142 41.8324 217.142 43.999Z" fill="#E33700"/>
<path d="M196.275 89.0807C201.878 89.0807 206.421 84.5383 206.421 78.9349C206.421 73.3315 201.878 68.7891 196.275 68.7891C190.671 68.7891 186.129 73.3315 186.129 78.9349C186.129 84.5383 190.671 89.0807 196.275 89.0807Z" fill="#E33700"/>
<path d="M286.042 218.439L273.438 220.002L272.501 196.418L279.272 203.835L285.001 195.522L286.042 218.439Z" fill="#00A457"/>
<path d="M268.635 100.393H373.093C377.135 100.393 380.448 97.0804 380.448 93.0387C380.448 88.9971 377.135 85.6846 373.093 85.6846H268.635C264.594 85.6846 261.281 88.9971 261.281 93.0387C261.281 97.0804 264.594 100.393 268.635 100.393Z" fill="#CFF9FF"/>
<path d="M36.9296 65.2728H141.388C145.43 65.2728 148.742 61.9603 148.742 57.9186C148.742 53.877 145.43 50.5645 141.388 50.5645H36.9296C32.8879 50.5645 29.5754 53.877 29.5754 57.9186C29.5754 61.9603 32.8879 65.2728 36.9296 65.2728Z" fill="#CFF9FF"/>
<path d="M12.1538 147.083H116.612C120.654 147.083 123.966 143.771 123.966 139.729C123.966 135.687 120.654 132.375 116.612 132.375H12.1538C8.11209 132.375 4.79959 135.687 4.79959 139.729C4.79959 143.792 8.11209 147.083 12.1538 147.083Z" fill="#CFF9FF"/>
<path d="M380.444 181.604V196.312H306.902C304.881 196.312 303.048 195.479 301.715 194.146C300.381 192.812 299.548 190.979 299.548 188.958C299.548 184.916 302.86 181.604 306.902 181.604H380.444Z" fill="#CFF9FF"/>
</svg>
