<svg width="200" height="200" viewBox="0 0 200 200" fill="none" xmlns="http://www.w3.org/2000/svg">
<path d="M20.1858 179.97L1.15806 71.9409C0.974335 70.8982 0.859804 69.8445 0.815223 68.7867C0.532443 56.539 9.32687 45.9594 21.42 43.9993L58.1384 37.5195L57.1442 179.97H20.1858Z" fill="#35495E"/>
<path d="M161.503 175.239C160.867 177.883 158.728 179.9 156.052 180.382L47.9884 199.444C41.1771 200.633 34.1836 198.831 28.7947 194.499C23.4057 190.167 20.1434 183.724 19.8411 176.816C19.571 165.106 27.6331 154.846 39.0745 152.337L69.3475 160.84H69.3132L42.0572 165.674C39.0174 166.208 36.3772 168.077 34.8631 170.767C33.349 173.456 33.1205 176.683 34.2404 179.559C36.1796 184.191 41.1047 186.826 46.0342 185.867L128.625 171.297L161.503 175.239Z" fill="#2C3E50"/>
<path d="M69.3167 160.838L42.0608 165.672C39.0209 166.207 36.3808 168.076 34.8667 170.765C33.3526 173.455 33.124 176.681 34.244 179.558C36.1832 184.19 41.1082 186.824 46.0377 185.866L128.628 171.295L69.3167 160.838Z" fill="#F9EAB0"/>
<path d="M44.5489 114.696L63.6006 6.65293C64.2826 2.93911 67.8213 0.46186 71.5443 1.09203L178.775 19.9998C190.877 21.9614 199.678 32.5478 199.397 44.8044C199.35 45.8575 199.236 46.9065 199.054 47.9449L180.002 155.988L44.5489 114.696Z" fill="#E64C3C"/>
<path d="M156.356 36.8803C156.155 36.8802 155.954 36.863 155.756 36.8289L78.099 23.1358C76.3465 22.7036 75.2293 20.9866 75.544 19.2092C75.8588 17.4319 77.4977 16.203 79.2921 16.3989L156.946 30.0749C158.697 30.3817 159.923 31.9765 159.77 33.7479C159.616 35.5192 158.134 36.8793 156.356 36.8803Z" fill="#3F5C6C"/>
<path d="M139.873 51.3709C139.672 51.3712 139.471 51.3528 139.273 51.3161L88.6288 42.3987C86.8066 42.0292 85.6111 40.2747 85.9338 38.4437C86.2565 36.6127 87.9798 35.3726 89.8184 35.6482L140.467 44.5621C142.228 44.8598 143.466 46.4603 143.311 48.2401C143.156 50.0199 141.66 51.3823 139.873 51.3709Z" fill="#3F5C6C"/>
<path d="M147.03 66.6836L76.1128 54.1561C74.2478 53.8267 72.4688 55.0715 72.1393 56.9366L66.1738 90.7065C65.8444 92.5716 67.0892 94.3506 68.9543 94.6801L139.871 107.208C141.736 107.537 143.515 106.292 143.845 104.427L149.81 70.6571C150.14 68.792 148.895 67.013 147.03 66.6836Z" fill="#ECF0F1"/>
<path d="M199.388 44.7869C199.347 45.845 199.233 46.8989 199.045 47.941L179.983 155.971L153.55 147.914L168.875 61.0376L172.509 40.5357L176.212 19.5537L178.783 19.9994C190.871 21.9692 199.66 32.5428 199.388 44.7869Z" fill="#C03A2B"/>
<path d="M159.723 128.029L52.4817 109.138C52.0853 109.07 51.6839 109.036 51.2817 109.036C47.7283 109.045 44.7705 111.767 44.4673 115.307C44.1641 118.848 46.6159 122.033 50.1161 122.646L158.146 141.674C161.183 142.224 163.815 144.104 165.321 146.798C166.827 149.492 167.05 152.718 165.928 155.594C163.999 160.216 159.082 162.839 154.169 161.868L46.5505 142.908C46.1542 142.84 45.7527 142.806 45.3506 142.806C41.7905 142.797 38.816 145.514 38.5033 149.06C38.1907 152.607 40.644 155.802 44.1506 156.416L152.214 175.444C159.021 176.637 166.011 174.842 171.4 170.516C176.789 166.191 180.054 159.754 180.362 152.851C180.631 140.589 171.828 130.002 159.723 128.029Z" fill="#802F34"/>
<path d="M165.928 155.594C163.999 160.216 159.081 162.84 154.168 161.868L46.5502 142.909L50.1157 122.647L158.145 141.675C161.182 142.225 163.815 144.104 165.321 146.798C166.827 149.492 167.05 152.719 165.928 155.594Z" fill="#F9EAB0"/>
</svg>
