<svg width="255" height="255" viewBox="0 0 255 255" fill="none" xmlns="http://www.w3.org/2000/svg">
<g clip-path="url(#clip0_126:112)">
<path d="M86.4437 153.614C91.845 153.614 96.2237 149.235 96.2237 143.834C96.2237 138.432 91.845 134.054 86.4437 134.054C81.0423 134.054 76.6637 138.432 76.6637 143.834C76.6637 149.235 81.0423 153.614 86.4437 153.614Z" fill="#FFAF8C"/>
<path d="M162.032 153.614C167.433 153.614 171.812 149.235 171.812 143.834C171.812 138.432 167.433 134.054 162.032 134.054C156.63 134.054 152.252 138.432 152.252 143.834C152.252 149.235 156.63 153.614 162.032 153.614Z" fill="#FFAF8C"/>
<path d="M124.666 205.515C103.441 205.515 86.086 188.16 86.086 166.935V110.745C86.086 89.52 103.441 72.165 124.666 72.165C145.891 72.165 163.246 89.52 163.246 110.745V166.935C163.246 188.145 145.891 205.515 124.666 205.515Z" fill="#F9CF98"/>
<path d="M122.937 145.334L115.932 157.469C115.182 158.774 116.127 160.394 117.627 160.394H131.637C133.137 160.394 134.082 158.774 133.332 157.469L126.327 145.334C125.577 144.029 123.687 144.029 122.937 145.334Z" fill="#FFAF8C"/>
<path d="M35.6022 147.035C35.6022 147.035 85.6422 138.56 124.252 158.315C124.252 158.315 162.862 137.54 207.322 148.61V160.385L124.642 168.23L35.6022 156.725V147.035Z" fill="#FFEE99"/>
<path d="M121.802 108.554C112.877 123.269 97.5766 131.759 81.6016 132.614C74.9716 118.034 75.4366 100.544 84.3616 85.8291C93.2866 71.1141 108.587 62.624 124.577 61.769C131.192 76.334 130.742 93.8241 121.802 108.554Z" fill="#5E372D"/>
<path d="M164.797 85.8172C173.737 100.532 174.217 118.007 167.617 132.602C151.627 131.762 136.312 123.302 127.372 108.587C118.417 93.8723 117.952 76.3822 124.552 61.8022C140.542 62.6422 155.857 71.1022 164.797 85.8172Z" fill="#734538"/>
<path d="M142.664 149.805C144.586 149.805 146.144 148.247 146.144 146.325C146.144 144.403 144.586 142.845 142.664 142.845C140.742 142.845 139.184 144.403 139.184 146.325C139.184 148.247 140.742 149.805 142.664 149.805Z" fill="#223441"/>
<path d="M109.37 148.55C110.851 147.325 111.058 145.131 109.833 143.651C108.608 142.17 106.414 141.963 104.933 143.188C103.452 144.413 103.245 146.607 104.47 148.088C105.695 149.568 107.889 149.776 109.37 148.55Z" fill="#223441"/>
<path d="M112.91 129.911L99.2754 133.736C98.4504 133.961 97.5954 133.481 97.3704 132.671C97.1454 131.846 97.6254 130.991 98.4354 130.766L112.07 126.941C112.895 126.716 113.75 127.196 113.975 128.006C114.215 128.831 113.72 129.686 112.91 129.911Z" fill="#223441"/>
<path d="M149.977 139.425L136.102 136.56C135.277 136.395 134.737 135.57 134.902 134.73C135.067 133.905 135.892 133.365 136.732 133.53L150.607 136.395C151.432 136.56 151.972 137.385 151.807 138.225C151.627 139.05 150.817 139.59 149.977 139.425Z" fill="#223441"/>
<path d="M124.308 264.807L29.8531 250.557V146.157L124.308 160.422V264.807Z" fill="#FF7622"/>
<path d="M93.329 225.104L48.0591 218.264V168.239L93.329 175.064V225.104Z" fill="#FFB926"/>
<path d="M124.393 264.807L218.863 250.557V146.157L124.393 160.422V264.807Z" fill="#FF7622"/>
<path d="M137.865 158.312V264.782C137.865 267.077 131.76 268.937 124.245 268.937C116.73 268.937 110.625 267.077 110.625 264.782V158.312H137.865Z" fill="#FF6000"/>
<path d="M137.865 157.969C137.865 160.459 131.76 162.469 124.245 162.469C116.73 162.469 110.625 160.459 110.625 157.969H137.865Z" fill="#FFEE99"/>
<path d="M138.087 166.5V170.655C138.087 172.95 131.817 174.81 124.287 174.81C116.757 174.81 110.667 172.95 110.667 170.655V166.5C110.667 168.795 116.772 170.655 124.287 170.655C131.817 170.655 137.907 168.795 137.907 166.5H138.087Z" fill="#00375F"/>
<path d="M138.023 174.804V178.959C138.023 181.254 131.753 183.114 124.223 183.114C116.693 183.114 110.603 181.254 110.603 178.959V174.804C110.603 177.099 116.708 178.959 124.223 178.959C131.753 178.959 137.843 177.099 137.843 174.804H138.023Z" fill="#00375F"/>
<path d="M138.003 235.594V239.749C138.003 242.044 131.733 243.904 124.203 243.904C116.673 243.904 110.583 242.044 110.583 239.749V235.594C110.583 237.889 116.688 239.749 124.203 239.749C131.733 239.749 137.823 237.889 137.823 235.594H138.003Z" fill="#00375F"/>
<path d="M137.921 243.897V248.052C137.921 250.347 131.651 252.207 124.121 252.207C116.591 252.207 110.501 250.347 110.501 248.052V243.897C110.501 246.192 116.606 248.052 124.121 248.052C131.651 248.052 137.741 246.192 137.741 243.897H137.921Z" fill="#00375F"/>
<path d="M153.645 180.059L198.915 173.219V168.239L153.645 175.064V180.059Z" fill="#FFB926"/>
<path d="M153.645 187.514L198.915 180.674V175.679L153.645 182.519V187.514Z" fill="#FFB926"/>
<path d="M153.898 195.446L199.168 188.621V183.626L153.898 190.451V195.446Z" fill="#FFB926"/>
<path d="M92.9773 235.586L47.7073 228.746V223.751L92.9773 230.591V235.586Z" fill="#FFB926"/>
<path d="M189.456 148.28L180.381 149.405L179.706 132.425L184.581 137.765L188.706 131.78L189.456 148.28Z" fill="#00A457"/>
</g>
<defs>
<clipPath id="clip0_126:112">
<rect width="255" height="255" fill="white"/>
</clipPath>
</defs>
</svg>
