<svg width="250" height="180" viewBox="0 0 250 180" fill="none" xmlns="http://www.w3.org/2000/svg">
<path d="M242.894 105.948V150.323H130.635L115.005 141.025L130.635 28.2739H187.528C195.858 28.2739 203.119 32.9351 205.14 39.5836L218.04 81.9998L229.158 86.9621C237.625 90.74 242.894 98.0268 242.894 105.948Z" fill="#60B7FF" fill-opacity="0.4"/>
<path d="M137.705 28.2739V150.323H130.635L115.005 141.025L130.635 28.2739H137.705Z" fill="#26A6FE" fill-opacity="0.4"/>
<path d="M198.897 82.0011H148.716C147.58 82.0011 146.659 81.2443 146.659 80.3093V43.1396C146.659 42.2049 147.58 41.4478 148.716 41.4478H187.529C188.515 41.4478 189.37 41.9978 189.606 42.7795L200.894 79.8998C201.216 80.9673 200.235 82.0011 198.897 82.0011Z" fill="#D4F2F6" fill-opacity="0.4"/>
<path d="M198.892 82.0011H158.973L181.674 41.4478H187.524C188.51 41.4478 189.365 41.9978 189.601 42.7795L200.889 79.8998C201.211 80.9673 200.23 82.0011 198.892 82.0011Z" fill="#A6E7F0" fill-opacity="0.4"/>
<path d="M27.6564 0H109.369C121.114 0 130.634 7.82843 130.634 17.4848V150.324H6.3916V17.4848C6.3916 7.82843 15.912 0 27.6564 0Z" fill="#FE9738" fill-opacity="0.4"/>
<path d="M48.7049 0.00439453C36.9595 0.00439453 27.4377 7.82962 27.4377 17.4868V150.326H6.3916V17.4868C6.3916 7.82962 15.9086 0.00439453 27.654 0.00439453H48.7049Z" fill="#FE7D43" fill-opacity="0.4"/>
<path d="M68.887 44.6233L72.5125 58.4101L68.887 91.5566V96.3892C68.887 92.2531 66.8499 88.5102 63.5551 85.801C60.2553 83.0878 55.7031 81.4128 50.6729 81.4128H23.3242V29.647H50.6729C60.7328 29.647 68.887 36.3513 68.887 44.6233Z" fill="#EBEBEB" fill-opacity="0.4"/>
<path d="M114.444 29.647V81.4128H87.0998C77.0394 81.4128 68.8857 88.1171 68.8857 96.3892V44.6233C68.8857 40.4873 70.9228 36.7443 74.2177 34.0355C77.5174 31.3223 82.0696 29.647 87.0998 29.647H114.444Z" fill="#F9F7F8" fill-opacity="0.4"/>
<path d="M52.5049 47.4082H38.2551C36.1716 47.4082 34.4827 46.0195 34.4827 44.3064C34.4827 42.5933 36.1716 41.2046 38.2551 41.2046H52.5049C54.5883 41.2046 56.2773 42.5933 56.2773 44.3064C56.2778 46.0191 54.5888 47.4082 52.5049 47.4082Z" fill="#7A6D79" fill-opacity="0.4"/>
<path d="M52.508 58.8081H38.2582C36.1748 58.8081 34.4858 57.4194 34.4858 55.7063C34.4858 53.9932 36.1748 52.6045 38.2582 52.6045H52.508C54.5915 52.6045 56.2804 53.9932 56.2804 55.7063C56.2804 57.4194 54.592 58.8081 52.508 58.8081Z" fill="#7A6D79" fill-opacity="0.4"/>
<path d="M52.508 70.208H38.2582C36.1748 70.208 34.4858 68.8193 34.4858 67.1062C34.4858 65.3931 36.1748 64.0044 38.2582 64.0044H52.508C54.5915 64.0044 56.2804 65.3931 56.2804 67.1062C56.2804 68.8193 54.592 70.208 52.508 70.208Z" fill="#7A6D79" fill-opacity="0.4"/>
<path d="M99.4922 47.4073H85.2424C83.1589 47.4073 81.47 46.0185 81.47 44.3054C81.47 42.5923 83.1589 41.2036 85.2424 41.2036H99.4922C101.576 41.2036 103.265 42.5923 103.265 44.3054C103.265 46.0181 101.576 47.4073 99.4922 47.4073Z" fill="#7A6D79" fill-opacity="0.4"/>
<path d="M99.4939 58.8081H85.2441C83.1606 58.8081 81.4717 57.4194 81.4717 55.7063C81.4717 53.9932 83.1606 52.6045 85.2441 52.6045H99.4939C101.577 52.6045 103.266 53.9932 103.266 55.7063C103.266 57.4194 101.577 58.8081 99.4939 58.8081Z" fill="#7A6D79" fill-opacity="0.4"/>
<path d="M99.4939 70.208H85.2441C83.1606 70.208 81.4717 68.8193 81.4717 67.1062C81.4717 65.3931 83.1606 64.0044 85.2441 64.0044H99.4939C101.577 64.0044 103.266 65.3931 103.266 67.1062C103.266 68.8193 101.577 70.208 99.4939 70.208Z" fill="#7A6D79" fill-opacity="0.4"/>
<path d="M238.281 157.332H196.734V138.062H238.281C244.753 138.062 250 142.375 250 147.697C250 153.019 244.753 157.332 238.281 157.332Z" fill="#F9F7F8" fill-opacity="0.4"/>
<path d="M227.413 147.698C227.413 150.358 226.1 152.765 223.977 154.51C221.86 156.251 218.927 157.331 215.693 157.331H194.219V138.062H215.693C222.161 138.062 227.413 142.375 227.413 147.698Z" fill="#EBEBEB" fill-opacity="0.4"/>
<path d="M11.7186 157.332H53.2663V138.062H11.7186C5.2465 138.062 0 142.375 0 147.697C0 153.019 5.2465 157.332 11.7186 157.332Z" fill="#F9F7F8" fill-opacity="0.4"/>
<path d="M21.0358 154.514C23.1583 156.255 26.086 157.334 29.3204 157.334H11.7152C8.48083 157.334 5.55314 156.255 3.43061 154.514C1.31297 152.768 0 150.361 0 147.698C0 142.379 5.2465 138.065 11.7152 138.065H29.3204C22.8517 138.065 17.6052 142.379 17.6052 147.698C17.6052 150.361 18.9182 152.768 21.0358 154.514Z" fill="#EBEBEB" fill-opacity="0.4"/>
<path d="M220.874 125.214C216.952 125.214 213.772 122.6 213.772 119.375V107.695C213.772 104.47 216.952 101.856 220.874 101.856C224.797 101.856 227.976 104.47 227.976 107.695V119.375C227.976 122.6 224.797 125.214 220.874 125.214Z" fill="#FFE177" fill-opacity="0.4"/>
<path d="M58.3325 180C76.7151 180 91.6172 167.747 91.6172 152.632C91.6172 137.517 76.7151 125.264 58.3325 125.264C39.9499 125.264 25.0479 137.517 25.0479 152.632C25.0479 167.747 39.9499 180 58.3325 180Z" fill="#7A6D79" fill-opacity="0.4"/>
<path d="M64.2577 179.57C62.3364 179.851 60.3545 180 58.332 180C39.947 180 25.0479 167.745 25.0479 152.632C25.0479 137.515 39.947 125.264 58.332 125.264C60.354 125.264 62.3359 125.413 64.2577 125.694C48.7047 127.994 36.8987 139.178 36.8987 152.632C36.8987 166.082 48.7047 177.266 64.2577 179.57Z" fill="#685E68" fill-opacity="0.4"/>
<path d="M58.3284 164.663C66.4084 164.663 72.9586 159.277 72.9586 152.634C72.9586 145.99 66.4084 140.604 58.3284 140.604C50.2484 140.604 43.6982 145.99 43.6982 152.634C43.6982 159.277 50.2484 164.663 58.3284 164.663Z" fill="#F9F7F8" fill-opacity="0.4"/>
<path d="M175.699 179.999C194.081 179.999 208.983 167.746 208.983 152.631C208.983 137.516 194.081 125.263 175.699 125.263C157.316 125.263 142.414 137.516 142.414 152.631C142.414 167.746 157.316 179.999 175.699 179.999Z" fill="#7A6D79" fill-opacity="0.4"/>
<path d="M181.624 179.568C179.703 179.85 177.721 179.998 175.698 179.998C157.313 179.998 142.414 167.743 142.414 152.631C142.414 137.514 157.313 125.263 175.698 125.263C177.72 125.263 179.702 125.412 181.624 125.693C166.071 127.992 154.265 139.176 154.265 152.63C154.265 166.081 166.071 177.265 181.624 179.568Z" fill="#685E68" fill-opacity="0.4"/>
<path d="M175.694 164.663C183.774 164.663 190.324 159.277 190.324 152.633C190.324 145.989 183.774 140.604 175.694 140.604C167.614 140.604 161.063 145.989 161.063 152.633C161.063 159.277 167.614 164.663 175.694 164.663Z" fill="#F9F7F8" fill-opacity="0.4"/>
<path d="M162.003 96.5835H146.647C144.563 96.5835 142.875 95.1948 142.875 93.4817C142.875 91.7686 144.563 90.3799 146.647 90.3799H162.003C164.086 90.3799 165.775 91.7686 165.775 93.4817C165.776 95.1948 164.086 96.5835 162.003 96.5835Z" fill="#F9F7F8" fill-opacity="0.4"/>
</svg>
