<svg width="32" height="32" viewBox="0 0 32 32" fill="none" xmlns="http://www.w3.org/2000/svg">
<path d="M6.22222 4H0.888889C0.4 4 0 4.45 0 5V27C0 27.55 0.4 28 0.888889 28H6.22222C6.71111 28 7.11111 27.55 7.11111 27V5C7.11111 4.45 6.71111 4 6.22222 4ZM5.33333 10H1.77778V8H5.33333V10Z" fill="#606C38"/>
<path d="M15.1111 4H9.7778C9.28892 4 8.88892 4.45 8.88892 5V27C8.88892 27.55 9.28892 28 9.7778 28H15.1111C15.6 28 16 27.55 16 27V5C16 4.45 15.6 4 15.1111 4ZM14.2222 10H10.6667V8H14.2222V10Z" fill="#606C38"/>
<path d="M21.2516 5.546L16.4889 8.246C16.0516 8.494 15.8756 9.098 16.0942 9.588L24.0942 27.448C24.3147 27.94 24.8516 28.138 25.2871 27.892L30.0498 25.192C30.4871 24.944 30.6631 24.34 30.4444 23.85L22.4444 5.99C22.224 5.498 21.6871 5.3 21.2516 5.546Z" fill="#606C38"/>
<path d="M25.7778 27C25.7778 27.552 25.3796 28 24.8889 28C24.3982 28 24 27.552 24 27C24 26.448 24.3982 26 24.8889 26C25.3796 26 25.7778 26.448 25.7778 27Z" fill="#606C38"/>
</svg>
