<svg width="32" height="39" viewBox="0 0 32 39" fill="none" xmlns="http://www.w3.org/2000/svg">
<g clip-path="url(#clip0)">
<path d="M22.8039 3.36313V25.2235H5.70098C4.35066 25.2235 3.2577 24.0935 3.2577 22.7011C3.2577 21.3088 4.35066 20.1788 5.70098 20.1788H21.1751V0H4.88655C3.09481 0 1.62885 1.51341 1.62885 3.36313V23.5419C1.62885 25.3916 3.09481 26.905 4.88655 26.905H24.4328V3.36313H22.8039Z" fill="#606C38"/>
<path d="M5.70259 21.8604H5.70096C5.2514 21.8604 4.88654 22.237 4.88654 22.7011C4.88654 23.1652 5.2514 23.5419 5.70096 23.5419H5.70259H21.1734V21.8604H5.70259Z" fill="#DDA15E"/>
</g>
<path d="M22.0784 33.2292L20.6392 36.1344L18.5136 29.346L25.0892 27.1516L23.6185 30.1205C28.6189 32.9154 30.2233 29.1248 30.1285 26.0348C31.5506 31.2629 28.0587 36.5926 22.0784 33.2292Z" fill="#BC6C25"/>
<defs>
<clipPath id="clip0">
<rect width="26.0617" height="26.905" fill="white"/>
</clipPath>
</defs>
</svg>
