<svg width="32" height="38" viewBox="0 0 32 38" fill="none" xmlns="http://www.w3.org/2000/svg">
<g clip-path="url(#clip0)">
<path d="M22.9546 3.27923V24.5942H5.73862C4.37938 24.5942 3.2792 23.4924 3.2792 22.1348C3.2792 20.7772 4.37938 19.6754 5.73862 19.6754H21.315V0H4.91882C3.11524 0 1.63959 1.47565 1.63959 3.27923V22.9546C1.63959 24.7582 3.11524 26.2338 4.91882 26.2338H24.5942V3.27923H22.9546Z" fill="#606C38"/>
<path d="M5.74027 21.315H5.73863C5.2861 21.315 4.91882 21.6823 4.91882 22.1348C4.91882 22.5873 5.2861 22.9546 5.73863 22.9546H5.74027H21.3133V21.315H5.74027Z" fill="#DDA15E"/>
</g>
<path d="M18.3087 25.1391C18.1209 28.1476 19.6217 31.8916 24.7363 29.3221L23.3454 26.3833L29.8957 28.725L27.554 35.2753L26.1929 32.3995C20.0753 35.4926 16.7214 30.1904 18.3087 25.1391Z" fill="#BC6C25"/>
<defs>
<clipPath id="clip0">
<rect width="26.2338" height="26.2338" fill="white"/>
</clipPath>
</defs>
</svg>
