<svg width="32" height="32" viewBox="0 0 32 32" fill="none" xmlns="http://www.w3.org/2000/svg">
<g clip-path="url(#clip0)">
<path d="M32.046 25C32.046 16 24.046 18 24.046 11C24.046 10.42 23.99 9.924 23.888 9.502C23.362 5.97 21.008 3.136 17.958 2.272C17.986 2.148 18 2.022 18 1.89C18 0.85 17.1 0 16 0C14.9 0 14 0.85 14 1.89C14 2.02 14.014 2.148 14.042 2.272C10.622 3.24 8.076 6.688 8.002 10.818C8 10.878 8 10.938 8 11C8 18 0 16 0 25C0 27.382 5.33 29.374 12.468 29.878C13.14 31.14 14.47 32 16 32C17.53 32 18.86 31.14 19.532 29.878C26.668 29.376 32 27.382 32 25C32 24.992 32 24.986 32 24.978L32.048 25H32.046ZM25.82 26.69C24.126 27.142 22.128 27.468 19.984 27.648C19.806 25.604 18.09 24 16 24C13.91 24 12.194 25.604 12.016 27.648C9.872 27.468 7.874 27.142 6.18 26.69C3.848 26.068 2.732 25.372 2.324 25C2.732 24.628 3.848 23.932 6.18 23.31C8.892 22.586 12.38 22.188 16 22.188C19.62 22.188 23.108 22.586 25.82 23.31C28.152 23.932 29.268 24.628 29.676 25C29.268 25.372 28.152 26.068 25.82 26.69Z" fill="#606C38"/>
</g>
<defs>
<clipPath id="clip0">
<rect width="32" height="32" fill="white"/>
</clipPath>
</defs>
</svg>
