<svg width="32" height="32" viewBox="0 0 32 32" fill="none" xmlns="http://www.w3.org/2000/svg">
<g clip-path="url(#clip0)">
<path d="M28 4V30H7C5.342 30 4 28.656 4 27C4 25.344 5.342 24 7 24H26V0H6C3.8 0 2 1.8 2 4V28C2 30.2 3.8 32 6 32H30V4H28Z" fill="#606C38"/>
<path d="M7.002 26H7C6.448 26 6 26.448 6 27C6 27.552 6.448 28 7 28H7.002H25.998V26H7.002V26Z" fill="#DDA15E"/>
<path d="M8.9532 11.8059C8.36524 15.6455 10.1355 20.2409 17.784 16.4395L16.0873 12.8548L25.289 15.1378L21.2209 23.7013L19.5606 20.1933C10.4103 24.7653 6.13127 18.3867 8.9532 11.8059Z" fill="#BC6C25"/>
<path d="M10.723 4.96272L8.54057 1.66469L5.8137 11.0312L15.2887 11.8621L13.0584 8.49188C20.0636 3.38767 22.5213 7.77365 22.5246 11.7731C24.3183 4.6245 19.1001 -1.16827 10.723 4.96272Z" fill="#BC6C25"/>
</g>
<defs>
<clipPath id="clip0">
<rect width="32" height="32" fill="white"/>
</clipPath>
</defs>
</svg>
